<?xml version="1.0" encoding="UTF-8"?>
<svg version="1.1" xmlns="http://www.w3.org/2000/svg" width="1920" height="537">
<path d="M0 0 C10.39077572 7.46042746 17.17324966 17.85422718 21 30 C21 30.66 21 31.32 21 32 C21.928125 31.54625 22.85625 31.0925 23.8125 30.625 C37.63809558 24.84836502 54.70129883 25.50097566 68.921875 29.44140625 C72.57254221 30.10390043 75.34998637 29.61817922 79 29 C92.36670371 28.08177698 102.62519487 29.18681838 113.3125 38.125 C121.21612895 45.7875873 125.75332408 54.57433881 129 65 C130.23492187 64.71125 131.46984375 64.4225 132.7421875 64.125 C141.46447769 62.18314779 149.60503411 60.71062359 158.5625 61.0625 C165.19538516 61.30213046 169.66603034 60.4554638 175.62109375 57.24609375 C184.76864304 52.45452031 195.2888078 53.26093343 204.9453125 55.90234375 C216.53322776 60.06628773 224.672247 68.21907268 230.375 78.9375 C234.09674112 86.89676701 235.32313413 94.27537846 235 103 C235.71285156 102.68289063 236.42570313 102.36578125 237.16015625 102.0390625 C240.02902973 100.98937839 242.40205321 100.60750231 245.4375 100.375 C246.34371094 100.30023438 247.24992188 100.22546875 248.18359375 100.1484375 C251 100 251 100 254.05078125 100.2109375 C257.80727316 99.94226126 259.00722359 98.77188167 261.75 96.25 C270.32410356 88.9322228 279.46385086 86.61083202 290.546875 86.72265625 C303.18699175 87.73786925 311.61367489 95.23151324 320 104 C320.9977038 105.00229094 321.9969925 106.00301657 323 107 C323.68964844 106.54109375 324.37929688 106.0821875 325.08984375 105.609375 C340.52561728 95.53059832 355.34783703 91.30843572 373.9375 95 C375.29536354 95.31793878 376.65145188 95.64461791 378 96 C378.14695312 95.26136719 378.29390625 94.52273438 378.4453125 93.76171875 C381.20876291 81.26266433 386.89049028 69.76951379 397.55859375 62.1796875 C407.22941479 56.23062374 416.76679717 53.36170742 428.08203125 55.61328125 C442.19397729 59.41329519 452.60366208 68.5741523 460 81 C460 81.66 460 82.32 460 83 C461.47146484 82.20335937 461.47146484 82.20335937 462.97265625 81.390625 C479.00154745 72.91440469 494.06777892 69.70504478 512.3125 70.125 C517.20244862 70.19063689 521.06672527 69.25248789 525.6640625 67.66796875 C529.19765717 66.65752613 532.34780463 66.79710026 536 67 C536.17015625 66.34773438 536.3403125 65.69546875 536.515625 65.0234375 C539.08953915 55.74091731 542.84354975 50.10430017 550.875 44.75 C558.16199146 42.17812066 565.32402105 42.78294101 572.265625 46.07421875 C572.83796875 46.37972656 573.4103125 46.68523437 574 47 C574.29132812 46.21496094 574.58265625 45.42992187 574.8828125 44.62109375 C579.65919613 32.37973318 585.30129437 26.53401704 597.22265625 20.9609375 C606.50195795 17.35699818 615.9291763 18.24917679 625.1171875 21.6796875 C638.10710483 27.62899923 646.76969553 37.84223056 652 51 C652.6185056 53.43306175 652.88564814 55.48425911 653 58 C653.99 57.34 654.98 56.68 656 56 C659.95737076 53.76253283 663.52046267 53.2632897 668 54 C670.7807092 54.83183608 673.32349773 55.8529276 676 57 C676.185625 56.443125 676.37125 55.88625 676.5625 55.3125 C679.17024584 51.1174306 683.37124049 48.54291984 688 47 C693.25765945 46.60319551 696.56102842 47.10501854 701 50 C705.13769294 54.13769294 706.77571492 57.43506781 708 63 C711.77031893 62.40752131 714.64583905 61.30286151 718 59.5 C726.98695836 54.66950988 738.6603471 54.50030114 748.4375 57.1875 C756.02938078 59.88179932 761.55975405 64.15173561 767 70 C767.60134766 68.76636719 767.60134766 68.76636719 768.21484375 67.5078125 C775.95924301 52.29998991 786.09237136 42.35635013 802.4921875 36.7265625 C813.75058442 33.46478395 825.02968829 34.09393884 835.55859375 39.25390625 C847.11005716 45.7065502 853.81464433 54.443933 858 67 C858.068991 69.06145107 858.08467727 71.12501401 858.0625 73.1875 C858.05347656 74.27417969 858.04445313 75.36085938 858.03515625 76.48046875 C858.02355469 77.31191406 858.01195312 78.14335937 858 79 C858.54527344 78.73445313 859.09054687 78.46890625 859.65234375 78.1953125 C871.12089076 72.82371954 880.78107449 71.83213042 893 75 C893.63615234 74.23816406 893.63615234 74.23816406 894.28515625 73.4609375 C901.86502348 64.56500541 910.05322052 57.20072254 922 55 C933.63948698 54.09553031 942.71922051 55.54415585 952.1875 62.5625 C960.87631619 70.0238485 966.38964193 79.18628327 970 90 C970 90.66 970 91.32 970 92 C971.28583984 91.58427734 971.28583984 91.58427734 972.59765625 91.16015625 C994.25400599 84.29946372 1015.37265365 86.17346015 1035.67578125 96.33984375 C1047.86949966 103.18577275 1058.76449209 113.85493445 1064 127 C1064.35788271 128.32695473 1064.69809806 129.6592002 1065 131 C1065.7528125 130.97679687 1066.505625 130.95359375 1067.28125 130.9296875 C1082.57662825 130.66981457 1100.4995796 131.98660135 1114.1171875 139.78515625 C1116.9720041 141.31398225 1116.9720041 141.31398225 1120.0625 140.33203125 C1122.71453279 139.12944723 1125.36257791 137.92178137 1128 136.6875 C1143.5932508 130.16597813 1160.72313846 126.04079596 1176.8125 132.5625 C1178.55040549 133.35613601 1180.28319161 134.16170257 1182 135 C1182.60134766 134.07380859 1182.60134766 134.07380859 1183.21484375 133.12890625 C1191.16909524 121.27869484 1200.39467553 111.9356664 1214.640625 108.33203125 C1225.36910186 106.82222904 1236.04423841 108.67582144 1244.875 115.25 C1246.28062145 116.46546425 1247.65731644 117.71534991 1249 119 C1249.93779297 119.89525391 1249.93779297 119.89525391 1250.89453125 120.80859375 C1257.26303082 127.48233731 1261.82773583 135.81272033 1263 145 C1263.96035156 144.71125 1264.92070313 144.4225 1265.91015625 144.125 C1281.58182889 139.75218882 1299.47582125 138.35279874 1315 144 C1316.09570312 144.37511719 1317.19140625 144.75023437 1318.3203125 145.13671875 C1324.15495632 147.24330427 1329.30794837 149.44915066 1334.21875 153.27734375 C1336.08194735 154.24924053 1336.08194735 154.24924053 1338.4140625 153.28125 C1340.06652916 152.46250519 1341.71770537 151.64114731 1343.3671875 150.81640625 C1351.07441331 146.96279335 1358.55615658 145.40160964 1367 144 C1366.87625 142.081875 1366.87625 142.081875 1366.75 140.125 C1366.76106726 133.09728706 1369.36438095 127.47679457 1373.1875 121.6875 C1380.85770487 114.35819312 1389.38301904 111.73514969 1399.8046875 111.9296875 C1400.52914063 111.95289063 1401.25359375 111.97609375 1402 112 C1402.02126953 111.1646875 1402.02126953 111.1646875 1402.04296875 110.3125 C1402.50958279 102.84667543 1405.06355989 98.0180079 1410.25 92.6875 C1416.02533962 89.1435416 1422.20171678 87.16512311 1429 88 C1432.41569459 89.16033155 1435.71219185 90.51817097 1439 92 C1439.31130859 90.948125 1439.31130859 90.948125 1439.62890625 89.875 C1443.14236412 79.05531383 1449.02777414 72.44402126 1459 67 C1468.03441489 62.4310688 1479.36783209 62.46465877 1488.875 65.5625 C1501.34007983 70.84400049 1510.19885221 81.142283 1515.87890625 93.1796875 C1517.22259913 96.55998805 1517.83548441 99.38065696 1518 103 C1519.175625 102.01 1519.175625 102.01 1520.375 101 C1524.65611579 98.13915959 1529.03132729 98.43720536 1534 99 C1537.625 100 1537.625 100 1540 101 C1540.61488281 100.43410156 1541.22976563 99.86820312 1541.86328125 99.28515625 C1542.67152344 98.55167969 1543.47976563 97.81820312 1544.3125 97.0625 C1545.11300781 96.33160156 1545.91351562 95.60070312 1546.73828125 94.84765625 C1550.51440501 91.76284357 1554.03149901 91.65787661 1558.71875 91.71875 C1563.32098937 92.28614937 1566.03000776 95.03000776 1569.1875 98.1875 C1571.58621525 101.90964435 1572.78232834 105.76582355 1574 110 C1575.175625 108.88625 1575.175625 108.88625 1576.375 107.75 C1584.32512367 101.11861722 1594.90782634 99.17962392 1605 100 C1614.55089919 101.42219674 1623.09250901 105.09250901 1630 112 C1630 194.17 1630 276.34 1630 361 C996.4 361 362.8 361 -290 361 C-290 249.79 -290 138.58 -290 24 C-287.69 24.33 -285.38 24.66 -283 25 C-282.67128906 24.5153125 -282.34257812 24.030625 -282.00390625 23.53125 C-274.02399746 12.28585007 -264.2567635 5.25022191 -250.68115234 2.38818359 C-245.1674474 1.58989632 -239.62213852 1.71460708 -234.0625 1.75 C-232.85142578 1.74226562 -231.64035156 1.73453125 -230.39257812 1.7265625 C-216.111327 1.75749104 -204.84104048 4.15058663 -194.1875 14.25 C-189.31857731 19.40738669 -185.2541359 25.23759231 -183 32 C-182.21302734 31.67515625 -182.21302734 31.67515625 -181.41015625 31.34375 C-171.91585167 27.93148746 -160.1171367 27.07628795 -150.5 30.5625 C-145.47433903 32.9544383 -141.20217106 36.38653889 -137 40 C-136.360625 39.34 -135.72125 38.68 -135.0625 38 C-134.04355062 36.99808041 -133.02242732 35.99837021 -132 35 C-131.37996094 34.37222656 -130.75992188 33.74445313 -130.12109375 33.09765625 C-118.84458607 22.27802365 -104.4477831 18.13868658 -89.08105469 17.94140625 C-80.86986865 18.17259872 -72.97155265 20.56690873 -65.671875 24.23046875 C-64.00394775 25.13937194 -64.00394775 25.13937194 -62 25 C-61.74347656 24.46632812 -61.48695313 23.93265625 -61.22265625 23.3828125 C-54.58370366 10.46256134 -44.117665 -0.0834445 -30.19921875 -4.58203125 C-19.68662913 -6.57998345 -9.21110402 -5.59479576 0 0 Z " fill="#FEFEFE" transform="translate(290,176)"/>
<path d="M0 0 C8.96466193 7.57727377 13.74702992 15.74378562 16.5 27.09375 C17.03367187 26.69542969 17.56734375 26.29710937 18.1171875 25.88671875 C18.86226562 25.35691406 19.60734375 24.82710937 20.375 24.28125 C21.09429688 23.75917969 21.81359375 23.23710938 22.5546875 22.69921875 C25.5 21.09375 25.5 21.09375 35.5 18.09375 C35.5 31.62375 35.5 45.15375 35.5 59.09375 C30.88 61.40375 26.26 63.71375 21.5 66.09375 C17.99202161 71.72291066 17.99202161 71.72291066 16.265625 75.67578125 C13.12110527 81.76307054 8.34041089 86.31665844 3.5 91.09375 C2.819375 91.77308594 2.13875 92.45242187 1.4375 93.15234375 C-12.41603463 106.11117094 -32.11209545 112.27769587 -50.89257812 112.06689453 C-66.04699383 111.49519746 -79.98691937 107.95718211 -92.5 99.09375 C-92.5825 100.29 -92.665 101.48625 -92.75 102.71875 C-93.40902286 107.76829002 -95.26320372 111.16906483 -99.1796875 114.5390625 C-104.42125151 118.4758595 -108.167408 119.22779991 -114.75 119.15625 C-115.82765625 119.14722656 -116.9053125 119.13820312 -118.015625 119.12890625 C-118.83546875 119.11730469 -119.6553125 119.10570312 -120.5 119.09375 C-120.82871094 119.84398437 -121.15742187 120.59421875 -121.49609375 121.3671875 C-125.12391815 129.17340044 -129.39390969 135.05284927 -135.5 141.09375 C-136.01820313 141.64546875 -136.53640625 142.1971875 -137.0703125 142.765625 C-145.05185533 150.53822692 -159.06059306 157.02402503 -170.125 157.40625 C-173.63028851 157.74547147 -174.41425529 158.02515424 -177.3125 160.34375 C-178.64574806 162.01983328 -179.947022 163.72289208 -181.1875 165.46875 C-187.47317993 172.60384614 -195.51691043 176.4246531 -204.5 179.09375 C-205.4590625 179.38378906 -205.4590625 179.38378906 -206.4375 179.6796875 C-218.27021177 182.05519403 -229.13335775 179.17687124 -239.109375 172.82421875 C-245.86394611 167.93488051 -250.22227655 162.74177138 -253.5 155.09375 C-253.9846875 155.74601563 -254.469375 156.39828125 -254.96875 157.0703125 C-259.81840605 163.39351789 -264.72571508 169.50232169 -272.5 172.09375 C-280.26661795 172.78886899 -285.09219895 171.6866421 -291.375 166.90625 C-292.07625 166.308125 -292.7775 165.71 -293.5 165.09375 C-293.99886719 165.54105469 -294.49773437 165.98835937 -295.01171875 166.44921875 C-304.2516616 174.22935016 -313.98949269 178.0024396 -326.1328125 177.515625 C-335.86912125 176.29576265 -342.73818002 172.74652734 -348.875 165.15625 C-352.00747378 159.15453553 -351.62056405 151.02201947 -349.8046875 144.65625 C-348.86118969 142.62654043 -347.81172615 140.90557174 -346.5 139.09375 C-345.88125 138.20816406 -345.88125 138.20816406 -345.25 137.3046875 C-340.13638776 130.70928989 -332.68773031 125.03294928 -324.5 123.09375 C-324.90992188 122.51109375 -325.31984375 121.9284375 -325.7421875 121.328125 C-330.82204647 113.59896159 -333.58983408 105.66419757 -331.9375 96.34375 C-329.53839225 87.99968341 -324.83837404 82.58376853 -317.5 78.09375 C-312.82383286 75.71464742 -308.71296212 74.62568491 -303.5 74.09375 C-303.48582031 73.3203125 -303.47164062 72.546875 -303.45703125 71.75 C-303.08642877 63.65684313 -301.68783408 58.50078201 -296.08203125 52.6015625 C-290.30348762 47.36524146 -284.48583567 45.63480973 -276.87890625 45.85546875 C-273.88533408 46.15531752 -271.26795739 46.92829426 -268.5 48.09375 C-268.62375 46.85625 -268.7475 45.61875 -268.875 44.34375 C-268.83950424 36.83048145 -265.29659495 30.3218196 -260.44921875 24.7265625 C-251.05944903 15.88717004 -241.24350348 12.46529212 -228.5234375 12.7578125 C-215.8337221 13.4914272 -206.02461212 21.03075476 -197.6875 30.03125 C-194.32323741 34.04125968 -191.84333037 38.42868677 -189.5 43.09375 C-188.3553125 42.1346875 -188.3553125 42.1346875 -187.1875 41.15625 C-183.51670079 38.33912503 -180.99317285 37.97107358 -176.5 38.03125 C-175.200625 38.04478516 -175.200625 38.04478516 -173.875 38.05859375 C-173.09125 38.07019531 -172.3075 38.08179688 -171.5 38.09375 C-170.51 38.09375 -169.52 38.09375 -168.5 38.09375 C-167.05737005 36.45379123 -167.05737005 36.45379123 -165.75 34.34375 C-162.70922424 30.1091882 -160.32072532 28.12352908 -155.5 26.09375 C-149.61122207 25.23720048 -145.33135532 26.8517948 -140.5 30.09375 C-137.513496 33.15884622 -135.8834408 36.05871433 -134.5 40.09375 C-133.571875 39.2275 -132.64375 38.36125 -131.6875 37.46875 C-120.75248511 28.12750246 -109.63894208 25.04333331 -95.5 26.09375 C-87.80717606 27.28573704 -82.315636 29.94466254 -76.5 35.09375 C-76.34144531 34.56007812 -76.18289063 34.02640625 -76.01953125 33.4765625 C-70.96666105 17.34087754 -61.73549919 3.71399925 -46.5 -4.28125 C-31.15119804 -11.44013355 -13.73744956 -10.47480529 0 0 Z " fill="#FDFEFE" transform="translate(1884.5,11.90625)"/>
<path d="M0 0 C0 4.95 0 9.9 0 15 C-2.165625 15.886875 -4.33125 16.77375 -6.5625 17.6875 C-13.50110892 20.89456656 -16.04548393 24.58418696 -19.234375 31.58203125 C-22.37889473 37.66932054 -27.15958911 42.22290844 -32 47 C-32.680625 47.67933594 -33.36125 48.35867187 -34.0625 49.05859375 C-47.91603463 62.01742094 -67.61209545 68.18394587 -86.39257812 67.97314453 C-101.54699383 67.40144746 -115.48691937 63.86343211 -128 55 C-128.0825 56.19625 -128.165 57.3925 -128.25 58.625 C-128.90902286 63.67454002 -130.76320372 67.07531483 -134.6796875 70.4453125 C-139.92125151 74.3821095 -143.667408 75.13404991 -150.25 75.0625 C-151.32765625 75.05347656 -152.4053125 75.04445313 -153.515625 75.03515625 C-154.74539063 75.01775391 -154.74539063 75.01775391 -156 75 C-156.49306641 76.12535156 -156.49306641 76.12535156 -156.99609375 77.2734375 C-160.62391815 85.07965044 -164.89390969 90.95909927 -171 97 C-171.51820313 97.55171875 -172.03640625 98.1034375 -172.5703125 98.671875 C-180.55185533 106.44447692 -194.56059306 112.93027503 -205.625 113.3125 C-209.13028851 113.65172147 -209.91425529 113.93140424 -212.8125 116.25 C-214.14574806 117.92608328 -215.447022 119.62914208 -216.6875 121.375 C-222.97317993 128.51009614 -231.01691043 132.3309031 -240 135 C-240.9590625 135.29003906 -240.9590625 135.29003906 -241.9375 135.5859375 C-253.77021177 137.96144403 -264.63335775 135.08312124 -274.609375 128.73046875 C-281.36394611 123.84113051 -285.72227655 118.64802138 -289 111 C-289.4846875 111.65226562 -289.969375 112.30453125 -290.46875 112.9765625 C-295.31840605 119.29976789 -300.22571508 125.40857169 -308 128 C-315.76661795 128.69511899 -320.59219895 127.5928921 -326.875 122.8125 C-327.57625 122.214375 -328.2775 121.61625 -329 121 C-329.49886719 121.44730469 -329.99773437 121.89460938 -330.51171875 122.35546875 C-339.7516616 130.13560016 -349.48949269 133.9086896 -361.6328125 133.421875 C-371.36912125 132.20201265 -378.23818002 128.65277734 -384.375 121.0625 C-387.50747378 115.06078553 -387.12056405 106.92826947 -385.3046875 100.5625 C-384.36118969 98.53279043 -383.31172615 96.81182174 -382 95 C-381.38125 94.11441406 -381.38125 94.11441406 -380.75 93.2109375 C-375.63638776 86.61553989 -368.18773031 80.93919928 -360 79 C-360.40992188 78.41734375 -360.81984375 77.8346875 -361.2421875 77.234375 C-366.32204647 69.50521159 -369.08983408 61.57044757 -367.4375 52.25 C-365.03839225 43.90593341 -360.33837404 38.49001853 -353 34 C-348.30151188 31.60954113 -344.21434899 30.61345282 -339 30 C-338.34 29.67 -337.68 29.34 -337 29 C-338.93950489 33.19902808 -341.62717744 36.74106738 -344.34375 40.46484375 C-348.11529431 46.23779719 -348.66281714 51.24143835 -348 58 C-346.42577433 63.21462252 -343.69229504 65.34341897 -339.140625 67.96484375 C-336.13983596 69.41595524 -333.246156 70.25608925 -330 71 C-331.09085641 74.27256924 -331.68488565 74.74693639 -334.3125 76.75 C-338.8286682 80.50418097 -341.54612648 84.16329049 -342.5 90.125 C-341.86421314 93.78077447 -340.64533677 95.42814481 -338 98 C-333.72102555 99.91816096 -328.37787843 99.33743961 -323.9375 98.25 C-321 98 -321 98 -318.375 99.9375 C-313.33531717 103.01730617 -308.7517793 103.09593692 -303 102 C-296.06857627 98.43754412 -292.901248 91.93230893 -290 85 C-288.824375 85.4125 -287.64875 85.825 -286.4375 86.25 C-270.8673563 91.38274453 -257.09149048 95.00434759 -241.625 87.5625 C-238.54316434 86.00201496 -236.4216258 84.42870658 -234 82 C-233.34 82 -232.68 82 -232 82 C-230.85080517 79.77045611 -229.840586 77.58411181 -228.94140625 75.23828125 C-227.29406698 71.74293531 -225.9330723 69.55160336 -223 67 C-219.13382432 66.02114945 -215.23418754 66.18026321 -211.27050781 66.20043945 C-201.54792251 66.19573072 -194.55546883 62.94095781 -187.625 56.0625 C-182.80846843 50.19802014 -180.46410236 43.08429427 -178 36 C-177.28714844 36.3609375 -176.57429688 36.721875 -175.83984375 37.09375 C-168.27978339 40.8778667 -168.27978339 40.8778667 -160 41 C-155.60152069 38.71617421 -153.01530057 36.53442629 -151 32 C-150.20273733 29.02154699 -149.56133095 26.03118713 -149 23 C-145.45360418 24.30974846 -142.19295775 25.93509504 -138.88818359 27.7668457 C-131.48212827 31.86823373 -124.0620723 35.34615076 -116 38 C-115.06929687 38.3196875 -114.13859375 38.639375 -113.1796875 38.96875 C-98.37859035 43.23146598 -79.06254291 43.43170567 -65 37 C-64.38930664 36.73155273 -63.77861328 36.46310547 -63.14941406 36.18652344 C-51.73709724 31.11750126 -40.48030932 24.72443429 -31.7265625 15.6953125 C-29 13 -29 13 -27 13 C-26.6596875 12.1028125 -26.6596875 12.1028125 -26.3125 11.1875 C-23.17435314 5.95725523 -16.83210033 4.89183673 -11.3125 3.375 C-7.85286613 2.4038747 -3.4150113 0 0 0 Z " fill="#B5D3EE" transform="translate(1920,56)"/>
<path d="M0 0 C-0.680625 0.639375 -1.36125 1.27875 -2.0625 1.9375 C-8.1875521 8.08000239 -14.36497723 15.07857352 -15.5 23.875 C-15.24486523 28.82650444 -13.44093028 32.45700822 -10 36 C-6.47416158 38.32744952 -2.83184025 40.22836108 1 42 C-0.52729017 43.7563837 -1.77896421 44.896759 -3.8984375 45.88671875 C-6.99008527 46.05336891 -8.22790531 44.70597056 -10.625 42.8125 C-20.0989169 35.89350238 -28.33021871 34.33630494 -40 34 C-40 33.67 -40 33.34 -40 33 C-37.525 32.505 -37.525 32.505 -35 32 C-35.12375 30.081875 -35.12375 30.081875 -35.25 28.125 C-35.23893274 21.09728706 -32.63561905 15.47679457 -28.8125 9.6875 C-20.41508436 1.66330283 -11.29012511 -0.36160543 0 0 Z " fill="#B4D2EC" transform="translate(1692,288)"/>
<path d="M0 0 C0.33 0.66 0.66 1.32 1 2 C-1.40170511 4.70751228 -3.64531255 6.59335152 -7 8 C-11.86758343 7.64040337 -16.35048437 6.44970853 -21 5 C-14.59302052 0.72868035 -7.57874721 -0.42104151 0 0 Z " fill="#ACC8E1" transform="translate(826,243)"/>
<path d="M0 0 C2.97 1.98 2.97 1.98 6 4 C5.34 4.66 4.68 5.32 4 6 C3.01 6 2.02 6 1 6 C0.67 4.02 0.34 2.04 0 0 Z " fill="#BBD8F1" transform="translate(1891,325)"/>
</svg>
