<?xml version="1.0" encoding="UTF-8"?>
<svg version="1.1" xmlns="http://www.w3.org/2000/svg" width="480" height="480">
<path d="M0 0 C0.98288136 -0.00445784 1.96576272 -0.00891569 2.97842836 -0.01350862 C4.05583898 -0.01332426 5.1332496 -0.01313989 6.24330902 -0.01294994 C7.96307803 -0.01846498 7.96307803 -0.01846498 9.71758986 -0.02409142 C12.90063538 -0.0332089 16.0836506 -0.03782592 19.26670694 -0.04048073 C22.69976252 -0.04438813 26.13280323 -0.05396629 29.5658493 -0.0626936 C37.85796849 -0.08244754 46.15008887 -0.09252367 54.44222569 -0.10142139 C58.34975212 -0.10580676 62.25727719 -0.11117299 66.16480255 -0.11641026 C79.15943622 -0.13342282 92.15406906 -0.14791555 105.14871216 -0.155159 C108.52021028 -0.15706881 111.89170839 -0.15898916 115.26320648 -0.16094494 C116.10115012 -0.16142868 116.93909375 -0.16191242 117.80242962 -0.16241082 C131.36734986 -0.17070572 144.93218176 -0.19603335 158.49706346 -0.22852562 C172.43256273 -0.26163264 186.36801717 -0.27961112 200.30355597 -0.28280324 C208.12425304 -0.28496516 215.94482137 -0.29366689 223.76548004 -0.31926441 C230.42807864 -0.34102141 237.09051721 -0.34899743 243.7531473 -0.33929763 C247.14920778 -0.33476697 250.54467199 -0.33876871 253.94073105 -0.35605907 C257.63252366 -0.37379909 261.32348779 -0.36666015 265.01528168 -0.35352612 C266.07484652 -0.36449536 267.13441136 -0.37546461 268.22608423 -0.38676625 C279.65841578 -0.2890325 289.08775735 3.23852298 298.13722992 10.13422108 C299.16847992 10.87672108 300.19972992 11.61922108 301.26222992 12.38422108 C308.98880989 19.77486279 315.65017722 30.47028912 316.26603109 41.4253993 C316.26781966 42.27402462 316.26960823 43.12264993 316.271451 43.99699116 C316.27590884 44.97987252 316.28036668 45.96275388 316.28495961 46.97541952 C316.28468307 48.59153545 316.28468307 48.59153545 316.28440094 50.24030018 C316.28807763 51.38681285 316.29175432 52.53332553 316.29554242 53.71458101 C316.3046599 56.89762654 316.30927692 60.08064176 316.31193173 63.2636981 C316.31583913 66.69675368 316.32541729 70.12979439 316.33414459 73.56284046 C316.35389854 81.85495964 316.36397467 90.14708002 316.37287238 98.43921685 C316.37725776 102.34674328 316.38262399 106.25426835 316.38786125 110.16179371 C316.40487382 123.15642738 316.41936655 136.15106022 316.42660999 149.14570332 C316.42851981 152.51720143 316.43044015 155.88869955 316.43239594 159.26019764 C316.43287968 160.09814127 316.43336342 160.93608491 316.43386181 161.79942077 C316.44215671 175.36434102 316.46748435 188.92917292 316.49997661 202.49405462 C316.53308364 216.42955389 316.55106211 230.36500833 316.55425423 244.30054712 C316.55641615 252.1212442 316.56511788 259.94181253 316.59071541 267.7624712 C316.61247241 274.4250698 316.62044843 281.08750837 316.61074863 287.75013846 C316.60621796 291.14619894 316.61021971 294.54166315 316.62751007 297.93772221 C316.64525009 301.62951482 316.63811114 305.32047895 316.62497711 309.01227283 C316.64143098 310.6016201 316.64143098 310.6016201 316.65821725 312.22307539 C316.56048349 323.65540693 313.03292802 333.08474851 306.13722992 342.13422108 C305.02347992 343.68109608 305.02347992 343.68109608 303.88722992 345.25922108 C296.4965882 352.98580105 285.80116188 359.64716837 274.84605169 360.26302224 C273.99742638 360.26481081 273.14880107 360.26659938 272.27445984 360.26844215 C271.29157848 360.2729 270.30869712 360.27735784 269.29603148 360.28195077 C268.21862086 360.28176641 267.14121024 360.28158205 266.03115082 360.2813921 C264.88463814 360.28506879 263.73812547 360.28874547 262.55686998 360.29253358 C259.37382446 360.30165106 256.19080923 360.30626807 253.0077529 360.30892289 C249.57469732 360.31283029 246.14165661 360.32240844 242.70861053 360.33113575 C234.41649135 360.35088969 226.12437097 360.36096582 217.83223414 360.36986354 C213.92470772 360.37424891 210.01718265 360.37961515 206.10965729 360.38485241 C193.11502361 360.40186497 180.12039078 360.41635771 167.12574768 360.42360115 C163.75424956 360.42551097 160.38275145 360.42743131 157.01125336 360.42938709 C156.17330972 360.42987083 155.33536609 360.43035457 154.47203022 360.43085297 C140.90710998 360.43914787 127.34227808 360.46447551 113.77739638 360.49696777 C99.84189711 360.5300748 85.90644267 360.54805327 71.97090387 360.55124539 C64.15020679 360.55340731 56.32963847 360.56210904 48.5089798 360.58770657 C41.8463812 360.60946357 35.18394263 360.61743958 28.52131253 360.60773978 C25.12525206 360.60320912 21.72978784 360.60721087 18.33372879 360.62450123 C14.64193617 360.64224125 10.95097205 360.6351023 7.25917816 360.62196827 C5.6698309 360.63842214 5.6698309 360.63842214 4.04837561 360.65520841 C-7.38395594 360.55747465 -16.81329751 357.02991918 -25.86277008 350.13422108 C-27.40964508 349.02047108 -27.40964508 349.02047108 -28.98777008 347.88422108 C-36.71435006 340.49357936 -43.37571738 329.79815304 -43.99157125 318.84304285 C-43.99335982 317.99441754 -43.99514839 317.14579223 -43.99699116 316.271451 C-44.001449 315.28856964 -44.00590685 314.30568828 -44.01049978 313.29302263 C-44.01022323 311.67690671 -44.01022323 311.67690671 -44.0099411 310.02814198 C-44.01361779 308.8816293 -44.01729448 307.73511662 -44.02108258 306.55386114 C-44.03020006 303.37081561 -44.03481708 300.18780039 -44.03747189 297.00474405 C-44.04137929 293.57168847 -44.05095745 290.13864776 -44.05968475 286.70560169 C-44.0794387 278.41348251 -44.08951483 270.12136213 -44.09841254 261.8292253 C-44.10279792 257.92169888 -44.10816415 254.0141738 -44.11340141 250.10664845 C-44.13041398 237.11201477 -44.14490671 224.11738194 -44.15215015 211.12273884 C-44.15405997 207.75124072 -44.15598031 204.37974261 -44.1579361 201.00824451 C-44.15841984 200.17030088 -44.15890358 199.33235725 -44.15940198 198.46902138 C-44.16769687 184.90410114 -44.19302451 171.33926923 -44.22551677 157.77438754 C-44.2586238 143.83888827 -44.27660228 129.90343383 -44.27979439 115.96789503 C-44.28195631 108.14719795 -44.29065804 100.32662963 -44.31625557 92.50597095 C-44.33801257 85.84337236 -44.34598859 79.18093379 -44.33628879 72.51830369 C-44.33175813 69.12224322 -44.33575987 65.726779 -44.35305023 62.33071995 C-44.37079025 58.63892733 -44.3636513 54.9479632 -44.35051727 51.25616932 C-44.36148652 50.19660448 -44.37245577 49.13703963 -44.38375741 48.04536676 C-44.28602365 36.61303522 -40.75846818 27.18369365 -33.86277008 18.13422108 C-33.12027008 17.10297108 -32.37777008 16.07172108 -31.61277008 15.00922108 C-23.43902244 6.46393945 -12.03675401 0.02536877 0 0 Z " fill="#212121" transform="translate(103.8627700805664,59.86577892303467)"/>
<path d="M0 0 C13.2 0 26.4 0 40 0 C40.99 5.61 41.98 11.22 43 17 C44.16917748 20.17457102 45.14688664 22.69587606 46.75 25.5625 C47.09998047 26.2210498 47.44996094 26.87959961 47.81054688 27.55810547 C50.59466434 32.63421114 53.68943347 37.09175301 58 41 C58.58007812 41.5259375 59.16015625 42.051875 59.7578125 42.59375 C70.42996109 51.34580491 82.69405368 54.18337978 96 56 C96 58.97 96 61.94 96 65 C99.96 65.33 103.92 65.66 108 66 C108 79.2 108 92.4 108 106 C90.20667063 106 74.37439932 102.3274268 59.23486328 92.87573242 C58.63396378 92.50314049 58.03306427 92.13054855 57.41395569 91.74666595 C55.94135997 90.83316626 54.47050331 89.91686415 53 89 C52.99413376 90.11340759 52.98826752 91.22681519 52.98222351 92.3739624 C52.92481514 102.90712293 52.85195992 113.44008059 52.76428509 123.97303391 C52.71970723 129.38711791 52.68042377 134.80112884 52.65356445 140.21533203 C52.62740545 145.44801135 52.58691517 150.68040756 52.53681374 155.91291046 C52.5202298 157.90137438 52.5086631 159.88988717 52.50238609 161.87841034 C52.41783219 186.21971008 46.40343984 206.26649492 29 224 C28.39671875 224.62777344 27.7934375 225.25554687 27.171875 225.90234375 C12.37221497 240.09071347 -8.22930525 244.59428227 -28.07421875 244.2734375 C-44.84430302 243.61833075 -59.53220085 235.76400023 -72 225 C-73.85290817 223.51925715 -75.70710934 222.04013106 -77.5625 220.5625 C-93.88592028 207.06296255 -104.77560598 191.33424741 -108 170 C-109.9001963 148.30801269 -104.75915183 128.81928396 -90.703125 111.9140625 C-90.14109375 111.28242188 -89.5790625 110.65078125 -89 110 C-88.45859375 109.38898438 -87.9171875 108.77796875 -87.359375 108.1484375 C-76.34712587 96.46721996 -58.68291257 86.59422935 -42.43652344 85.88867188 C-36.27942917 85.75789426 -30.16426279 85.88145648 -24 86 C-24 99.53 -24 113.06 -24 127 C-29.61 127 -35.22 127 -41 127 C-51.1264948 130.01847441 -58.18853045 134.60281519 -63.6640625 143.79296875 C-68.04177661 153.04975529 -68.5551738 162.16026825 -65.3125 171.875 C-61.34874987 181.4633674 -55.721999 186.99608847 -46.28125 191.16796875 C-37.55585362 194.35034791 -28.258533 193.92260364 -19.7109375 190.45703125 C-11.98768022 186.30605868 -5.95447966 180.30144556 -3 172 C-2.66091928 171.11320745 -2.32183857 170.22641491 -1.97248268 169.31274986 C-0.91356343 165.70555494 -0.73857202 162.73203435 -0.7215271 158.97647095 C-0.7157347 158.29347471 -0.7099423 157.61047847 -0.70397437 156.90678537 C-0.6870469 154.63133039 -0.68410419 152.35607913 -0.68115234 150.08056641 C-0.67184914 148.4442292 -0.66167989 146.80789672 -0.65071106 145.17156982 C-0.62344115 140.73819224 -0.60827056 136.30484638 -0.59528303 131.87140703 C-0.57963934 127.23490294 -0.55285305 122.5984635 -0.5272522 117.96200562 C-0.48048636 109.18615308 -0.44373161 100.41028835 -0.41057932 91.63437498 C-0.37234244 81.64164112 -0.32293637 71.64897223 -0.27259517 61.65629315 C-0.16930792 41.10423746 -0.08151146 20.55215439 0 0 Z " fill="#FEFEFE" transform="translate(240,118)"/>
<path d="M0 0 C5.94 0.495 5.94 0.495 12 1 C12 14.2 12 27.4 12 41 C-5.79332937 41 -21.62560068 37.3274268 -36.76513672 27.87573242 C-37.36603622 27.50314049 -37.96693573 27.13054855 -38.58604431 26.74666595 C-40.05864003 25.83316626 -41.52949669 24.91686415 -43 24 C-43.00879936 25.67011139 -43.00879936 25.67011139 -43.01777649 27.3739624 C-43.07518486 37.90712293 -43.14804008 48.44008059 -43.23571491 58.97303391 C-43.28029277 64.38711791 -43.31957623 69.80112884 -43.34643555 75.21533203 C-43.37259455 80.44801135 -43.41308483 85.68040756 -43.46318626 90.91291046 C-43.4797702 92.90137438 -43.4913369 94.88988717 -43.49761391 96.87841034 C-43.58216781 121.21971008 -49.59656016 141.26649492 -67 159 C-67.60328125 159.62777344 -68.2065625 160.25554687 -68.828125 160.90234375 C-83.62778503 175.09071347 -104.22930525 179.59428227 -124.07421875 179.2734375 C-140.31909416 178.63884751 -156.26630485 171.1201686 -168 160 C-168.33 159.34 -168.66 158.68 -169 158 C-165.99695497 159.12614189 -163.19454892 160.4232978 -160.375 161.9375 C-144.19604997 170.13401911 -124.10591751 169.83269525 -107 165 C-97.5446326 161.76420796 -89.76872385 157.24024322 -82 151 C-81.16339844 150.3709375 -80.32679688 149.741875 -79.46484375 149.09375 C-67.26214971 138.7282286 -58.76044749 120.6975687 -57 105 C-56.59920002 97.94265583 -56.62696312 90.86720821 -56.5859375 83.80078125 C-56.56720077 81.75383241 -56.54762554 79.70689109 -56.5272522 77.65995789 C-56.47618952 72.3056789 -56.43642624 66.95137494 -56.39910889 61.59698486 C-56.35890605 56.11993362 -56.30788842 50.64298392 -56.2578125 45.16601562 C-56.16135992 34.44408202 -56.07685812 23.72209073 -56 13 C-55.17471802 13.48378616 -54.34943604 13.96757233 -53.49914551 14.46601868 C-52.41725952 15.09896347 -51.33537354 15.73190826 -50.22070312 16.3840332 C-49.14792114 17.01219437 -48.07513916 17.64035553 -46.96984863 18.28755188 C-32.20721361 26.79985325 -16.79318351 29.32068165 0 31 C0 20.77 0 10.54 0 0 Z " fill="#E7437B" transform="translate(336,183)"/>
<path d="M0 0 C13.2 0 26.4 0 40 0 C40.495 4.95 40.495 4.95 41 10 C31.43 10 21.86 10 12 10 C12.00888245 12.05523392 12.01776489 14.11046783 12.0269165 16.22798157 C12.10874093 35.605685 12.16822292 54.98336561 12.20724869 74.36120319 C12.22784637 84.32330981 12.25591343 94.28528939 12.30175781 104.24731445 C12.34171125 112.93339587 12.36745311 121.61938525 12.37635398 130.305556 C12.38155435 134.90196867 12.39371853 139.49811813 12.42292023 144.09444618 C12.45022396 148.42745338 12.45841501 152.76009083 12.45243073 157.09317589 C12.45352431 158.67694488 12.46138877 160.26072721 12.4768219 161.84442139 C12.60034094 175.182309 10.86251719 185.02928552 1.3671875 194.8359375 C-6.41789764 201.95299553 -14.32853935 204.52342921 -24.875 204.3125 C-33.36479145 203.46352085 -40.79988032 199.82718015 -47 194 C-47.66 193.01 -48.32 192.02 -49 191 C-48.40574219 191.144375 -47.81148437 191.28875 -47.19921875 191.4375 C-36.54452023 193.82362222 -26.87056125 194.3050711 -17 189 C-10.59631058 184.40918604 -5.66448604 179.48662653 -3 172 C-2.66091928 171.11320745 -2.32183857 170.22641491 -1.97248268 169.31274986 C-0.91356343 165.70555494 -0.73857202 162.73203435 -0.7215271 158.97647095 C-0.7157347 158.29347471 -0.7099423 157.61047847 -0.70397437 156.90678537 C-0.6870469 154.63133039 -0.68410419 152.35607913 -0.68115234 150.08056641 C-0.67184914 148.4442292 -0.66167989 146.80789672 -0.65071106 145.17156982 C-0.62344115 140.73819224 -0.60827056 136.30484638 -0.59528303 131.87140703 C-0.57963934 127.23490294 -0.55285305 122.5984635 -0.5272522 117.96200562 C-0.48048636 109.18615308 -0.44373161 100.41028835 -0.41057932 91.63437498 C-0.37234244 81.64164112 -0.32293637 71.64897223 -0.27259517 61.65629315 C-0.16930792 41.10423746 -0.08151146 20.55215439 0 0 Z " fill="#80D0F5" transform="translate(240,118)"/>
<path d="M0 0 C0 3.3 0 6.6 0 10 C-1.30453125 10.23074219 -2.6090625 10.46148437 -3.953125 10.69921875 C-13.7896925 12.50601213 -23.0282161 14.39213516 -32 19 C-33.24910156 19.62648437 -33.24910156 19.62648437 -34.5234375 20.265625 C-51.04568284 29.33461771 -62.12727377 44.30598121 -68.00390625 62.02734375 C-73.34314399 80.83074622 -71.97082709 100.48894553 -63 118 C-61.25881983 120.93330569 -59.45156392 123.79279167 -57.55078125 126.625 C-56.19360961 128.70348957 -55.05421095 130.75655601 -54 133 C-66.41712112 127.65808062 -75.1033287 112.25061822 -79.9375 100.25 C-86.27816346 83.25065854 -86.52373746 62.72553544 -79.13818359 46.0546875 C-75.37116704 38.06226548 -70.8900017 30.61949732 -65 24 C-64.45859375 23.38898438 -63.9171875 22.77796875 -63.359375 22.1484375 C-46.10351037 3.84431941 -24.10472545 -0.60938913 0 0 Z " fill="#80CFF4" transform="translate(216,204)"/>
<path d="M0 0 C3.96 0 7.92 0 12 0 C12 13.53 12 27.06 12 41 C6.06 41 0.12 41 -6 41 C-9.81870523 42.21080897 -11.8729053 42.91310312 -15 45 C-16.03833984 45.63615234 -16.03833984 45.63615234 -17.09765625 46.28515625 C-24.23200955 51.07250734 -28.75020618 57.73020994 -31 66 C-31.74696488 74.2748187 -31.09647512 81.33100982 -28 89 C-27.64602056 90.3280013 -27.30664758 91.66027758 -27 93 C-34.93708953 89.76637093 -40.15302182 81.36558479 -43.375 73.75 C-45.12220988 63.26674074 -44.59339141 54.2423533 -39 45 C-33.17932482 37.38098093 -26.38585001 32.26834353 -17 30 C-11.10610692 29.44929141 -5.74745177 29.56313706 0 31 C0 20.77 0 10.54 0 0 Z " fill="#E8437B" transform="translate(216,214)"/>
<path d="M0 0 C3.63 0 7.26 0 11 0 C11.06316406 0.825 11.12632812 1.65 11.19140625 2.5 C12.50745992 14.91246412 16.84434517 25.78664244 24 36 C13.04222802 31.36401955 6.38183367 20.01367639 1.8984375 9.52734375 C0.75087062 6.29918823 0.22742776 3.41141644 0 0 Z " fill="#E5457B" transform="translate(281,128)"/>
<path d="M0 0 C2.75313399 1.08456793 5.44547027 2.20937103 8.125 3.46875 C12.28851666 5.25749175 16.48062335 5.98860675 20.9375 6.6875 C21.71673828 6.81705078 22.49597656 6.94660156 23.29882812 7.08007812 C25.19792168 7.3946519 27.09879356 7.69845882 29 8 C29 10.97 29 13.94 29 17 C17.5044418 13.99158796 8.35503134 9.63756863 0 1 C0 0.67 0 0.34 0 0 Z " fill="#81CBED" transform="translate(307,166)"/>
<path d="M0 0 C3.45925163 1.2491742 6.14693203 2.67527795 9 5 C8.01 5.33 7.02 5.66 6 6 C2.8125 3.625 2.8125 3.625 0 1 C0 0.67 0 0.34 0 0 Z " fill="#D6648B" transform="translate(167,341)"/>
</svg>
